<svg width="60" height="60" viewBox="0 0 30 30" fill="none" xmlns="http://www.w3.org/2000/svg">
<path d="M15 30C23.2843 30 30 23.2843 30 15C30 6.71573 23.2843 0 15 0C6.71573 0 0 6.71573 0 15C0 23.2843 6.71573 30 15 30Z" fill="#E0B9FF"/>
<path d="M10.9306 7.33438C11.4511 7.47633 11.9716 7.57097 12.4921 7.71293C13.0126 7.85488 13.5331 7.94952 14.0536 8.09148C14.1956 8.13879 14.2429 8.09148 14.2902 7.94952C14.4795 7.1451 14.6687 6.38801 14.858 5.58359C14.9053 5.44163 14.9527 5.39432 15.0946 5.44163C15.5678 5.58359 15.9937 5.67823 16.4669 5.77286C16.6088 5.82018 16.6088 5.8675 16.5615 5.96214C16.3722 6.71924 16.1829 7.52365 15.9937 8.28075C15.9937 8.32807 15.9937 8.37539 15.9464 8.47003C16.3249 8.56466 16.7508 8.6593 17.1293 8.75394C17.1766 8.75394 17.224 8.6593 17.2713 8.61198C17.4132 7.99684 17.5552 7.42902 17.7445 6.81387L17.8864 6.24605C17.8864 6.15141 17.9337 6.10409 18.0284 6.15141C18.5016 6.29337 18.9747 6.38801 19.4952 6.52996C19.5426 6.52996 19.5426 6.57728 19.5899 6.57728C19.4479 7.19242 19.306 7.76025 19.164 8.32807C19.1167 8.56466 19.0694 8.80125 18.9747 9.03785C18.9274 9.1798 18.9747 9.22712 19.1167 9.27444L20.6782 9.98422C21.1514 10.2681 21.5773 10.6467 21.9085 11.1199C22.3344 11.8296 22.3817 12.5867 22.1924 13.3438C22.0505 13.8643 21.8612 14.3375 21.4826 14.7161C21.1987 15 20.8202 15.1893 20.4416 15.3312C20.3943 15.3312 20.347 15.3785 20.2523 15.3785C20.4416 15.5205 20.6309 15.6151 20.8202 15.7571C21.388 16.183 21.7665 16.7035 21.9558 17.3659C22.0505 17.8864 22.0031 18.4543 21.8612 18.9748C21.6719 19.6372 21.4353 20.205 21.0094 20.7255C20.4889 21.3407 19.8265 21.6719 19.0694 21.7666C18.0757 21.9085 17.1293 21.8139 16.1829 21.6719C16.041 21.6246 15.9464 21.6719 15.899 21.8139C15.7098 22.571 15.5205 23.3754 15.3312 24.1325C15.2839 24.3218 15.2839 24.3691 15.0473 24.2744C14.6214 24.1798 14.1482 24.0378 13.7224 23.9432C13.5804 23.8959 13.5804 23.8486 13.6277 23.7539C13.817 22.9495 14.0063 22.1451 14.2429 21.388C14.2429 21.2934 14.2902 21.246 14.1956 21.1987C13.817 21.1041 13.4385 21.0095 13.0126 20.9148C12.918 21.3407 12.776 21.7666 12.6814 22.1924C12.5867 22.6183 12.4448 23.0442 12.3501 23.47C12.3028 23.5647 12.3028 23.612 12.1609 23.5647C11.6877 23.4227 11.2145 23.3281 10.7413 23.2334C10.5994 23.1861 10.5993 23.1388 10.6467 23.0442C10.8359 22.2397 11.0252 21.4353 11.2618 20.6782C11.2618 20.6309 11.3091 20.5836 11.3091 20.489C10.2208 20.205 9.13247 19.9211 7.99683 19.6372C8.09146 19.4479 8.13878 19.306 8.23342 19.1167C8.42269 18.6908 8.61197 18.265 8.75392 17.8864C8.80124 17.7445 8.84856 17.7445 8.99052 17.7445C9.32175 17.8391 9.7003 17.9337 10.0315 17.9811C10.4101 18.0757 10.694 17.8864 10.7413 17.5552C11.3564 15.1419 11.9716 12.7287 12.5394 10.2681C12.634 9.88958 12.3975 9.46372 11.9716 9.32176C11.5457 9.1798 11.1199 9.08517 10.7413 8.99053C10.6467 8.99053 10.5993 8.94321 10.6467 8.84857C10.7886 8.32807 10.9306 7.76025 11.0725 7.23974C10.8833 7.3817 10.8833 7.3817 10.9306 7.33438ZM13.3438 19.0221C13.3911 19.0221 13.4385 19.0694 13.4385 19.0694C14.1956 19.2587 15 19.4953 15.8044 19.5426C16.3722 19.5899 16.8927 19.5899 17.4132 19.4006C18.3123 19.1167 18.6908 17.9337 18.1703 17.1766C17.9337 16.7981 17.5552 16.5615 17.1766 16.3249C16.3249 15.8517 15.3312 15.6625 14.3848 15.4732C14.2429 15.4259 14.2429 15.4732 14.1956 15.6151C14.1009 16.0883 13.959 16.5142 13.8643 16.9874C13.6751 17.6498 13.5331 18.3123 13.3438 19.0221ZM17.3186 14.1956C17.4132 14.1956 17.6498 14.1483 17.8391 14.1009C18.7382 13.9117 19.2113 12.8707 18.7381 12.0662C18.5016 11.6404 18.0757 11.3565 17.6498 11.1672C16.9874 10.8833 16.3249 10.7413 15.6151 10.552C15.4732 10.5047 15.4258 10.552 15.3785 10.694C15.1419 11.6877 14.9053 12.6341 14.6214 13.6278C14.5741 13.7224 14.6214 13.7697 14.7161 13.817C14.9053 13.8643 15.0473 13.9117 15.2366 13.959C15.9464 14.0536 16.5615 14.1956 17.3186 14.1956Z" fill="white"/>
</svg>

